<svg width="376" height="190" viewBox="0 0 376 190" fill="#F1ECCB" xmlns="http://www.w3.org/2000/svg">
<path d="M143.62 173.372H146.7C147.316 173.372 147.741 173.225 147.976 172.932C148.24 172.639 148.372 172.14 148.372 171.436V150.228C145.82 151.489 143.723 152.413 142.08 153V150.844C143.195 150.375 144.515 149.627 146.04 148.6C147.565 147.573 148.739 146.693 149.56 145.96H153.432V171.436C153.432 172.14 153.549 172.639 153.784 172.932C154.048 173.225 154.488 173.372 155.104 173.372H158.184V175H143.62V173.372ZM173.681 175.528C170.132 175.528 167.433 174.355 165.585 172.008C163.737 169.632 162.813 166.376 162.813 162.24C162.813 158.456 163.576 155.273 165.101 152.692C166.627 150.111 168.695 148.189 171.305 146.928C173.916 145.667 176.864 145.036 180.149 145.036V146.664C177.949 146.664 175.999 147.207 174.297 148.292C172.625 149.348 171.276 150.873 170.249 152.868C169.252 154.833 168.665 157.136 168.489 159.776H168.665C169.604 158.573 170.616 157.679 171.701 157.092C172.816 156.505 174.063 156.212 175.441 156.212C177.055 156.212 178.507 156.579 179.797 157.312C181.088 158.045 182.1 159.116 182.833 160.524C183.596 161.903 183.977 163.516 183.977 165.364C183.977 167.241 183.581 168.957 182.789 170.512C182.027 172.037 180.868 173.255 179.313 174.164C177.788 175.073 175.911 175.528 173.681 175.528ZM173.769 173.68C175.177 173.68 176.292 173.049 177.113 171.788C177.964 170.497 178.389 168.737 178.389 166.508C178.389 164.22 177.935 162.46 177.025 161.228C176.145 159.967 174.913 159.336 173.329 159.336C171.833 159.336 170.66 159.879 169.809 160.964C168.959 162.02 168.533 163.56 168.533 165.584C168.533 167.755 169.003 169.647 169.941 171.26C170.88 172.873 172.156 173.68 173.769 173.68ZM192.643 174.604C194.813 174.604 196.749 174.061 198.451 172.976C200.152 171.861 201.501 170.307 202.499 168.312C203.525 166.288 204.127 163.956 204.303 161.316H204.127C203.188 162.519 202.161 163.413 201.047 164C199.961 164.587 198.729 164.88 197.351 164.88C195.737 164.88 194.285 164.513 192.995 163.78C191.704 163.047 190.677 161.991 189.915 160.612C189.181 159.204 188.815 157.576 188.815 155.728C188.815 153.851 189.196 152.149 189.959 150.624C190.751 149.069 191.909 147.837 193.435 146.928C194.989 146.019 196.881 145.564 199.111 145.564C202.66 145.564 205.359 146.752 207.207 149.128C209.055 151.475 209.979 154.716 209.979 158.852C209.979 162.636 209.216 165.819 207.691 168.4C206.165 170.981 204.097 172.903 201.487 174.164C198.876 175.425 195.928 176.056 192.643 176.056V174.604ZM199.463 161.756C200.959 161.756 202.132 161.228 202.983 160.172C203.833 159.087 204.259 157.532 204.259 155.508C204.259 153.337 203.789 151.445 202.851 149.832C201.912 148.219 200.636 147.412 199.023 147.412C197.615 147.412 196.485 148.057 195.635 149.348C194.813 150.609 194.403 152.355 194.403 154.584C194.403 156.872 194.843 158.647 195.723 159.908C196.632 161.14 197.879 161.756 199.463 161.756ZM214.156 174.428C214.156 172.463 214.904 170.541 216.4 168.664C217.896 166.757 219.7 164.88 221.812 163.032C223.014 161.976 224.012 161.008 224.804 160.128C225.625 159.248 226.314 158.192 226.872 156.96C227.429 155.728 227.708 154.349 227.708 152.824C227.708 151.035 227.312 149.641 226.52 148.644C225.728 147.647 224.642 147.148 223.264 147.148C222.354 147.148 221.65 147.353 221.152 147.764C220.653 148.145 220.404 148.644 220.404 149.26C220.404 149.612 220.506 149.964 220.712 150.316C220.8 150.492 220.888 150.697 220.976 150.932C221.064 151.167 221.108 151.445 221.108 151.768C221.108 152.648 220.844 153.352 220.316 153.88C219.788 154.408 219.084 154.672 218.204 154.672C217.294 154.672 216.546 154.379 215.96 153.792C215.402 153.205 215.124 152.369 215.124 151.284C215.124 149.289 216.018 147.823 217.808 146.884C219.626 145.916 221.768 145.432 224.232 145.432C227.194 145.432 229.482 146.151 231.096 147.588C232.709 148.996 233.516 150.991 233.516 153.572C233.516 155.127 233.222 156.432 232.636 157.488C232.049 158.544 231.242 159.468 230.216 160.26C229.218 161.052 227.737 162.049 225.772 163.252C223.513 164.719 221.768 166.097 220.536 167.388C219.304 168.679 218.512 169.823 218.16 170.82H229.556C230.406 170.82 231.052 170.747 231.492 170.6C231.961 170.424 232.313 170.16 232.548 169.808C232.812 169.456 233.09 168.913 233.384 168.18H234.836L233.164 175H214.156V174.428Z" />
<path d="M66.9736 126.6C66.2796 126.359 65.5456 126.186 64.7715 126.079C63.9974 125.946 63.21 125.826 62.4092 125.719C61.6351 125.585 60.8877 125.425 60.167 125.238C59.4463 125.051 58.8057 124.771 58.2451 124.397C57.6846 123.997 57.2308 123.463 56.8838 122.796C56.5635 122.129 56.4033 121.261 56.4033 120.193V119.192L57.1641 111.545C57.2708 111.331 57.3643 111.171 57.4443 111.064C57.5244 110.931 57.6979 110.864 57.9648 110.864C58.5521 110.864 58.9792 111.118 59.2461 111.625C60.2604 113.066 61.1413 114.468 61.8887 115.829C62.6628 117.19 63.4902 118.632 64.3711 120.153C64.4779 120.42 64.7581 120.687 65.2119 120.954C65.6924 121.194 66.2529 121.448 66.8936 121.715C67.5342 121.955 68.2282 122.182 68.9756 122.396C69.723 122.609 70.4303 122.796 71.0977 122.956C71.7917 123.116 72.4056 123.25 72.9395 123.356C73.5 123.437 73.9137 123.477 74.1807 123.477H74.9414C75.3685 123.477 75.6087 123.45 75.6621 123.396C75.7422 123.343 75.8757 123.25 76.0625 123.116C76.276 122.983 76.4896 122.836 76.7031 122.676C76.9434 122.516 77.1569 122.369 77.3438 122.235C77.5573 122.102 77.7041 122.008 77.7842 121.955C77.891 121.848 78.0778 121.742 78.3447 121.635C78.6117 121.528 78.7985 121.475 78.9053 121.475L80.5469 121.034C80.6536 121.034 80.8939 120.754 81.2676 120.193C81.6413 119.606 82.0283 118.965 82.4287 118.271C82.9092 117.471 83.4163 116.55 83.9502 115.509C83.9502 115.455 83.9635 115.309 83.9902 115.068C84.0169 114.828 84.0303 114.575 84.0303 114.308C84.057 114.014 84.0837 113.747 84.1104 113.507C84.137 113.24 84.1504 113.053 84.1504 112.946V112.306C84.1504 112.012 84.137 111.758 84.1104 111.545C84.1104 111.305 84.0837 111.078 84.0303 110.864C84.0036 110.624 83.9502 110.37 83.8701 110.104C83.8167 109.837 83.7367 109.516 83.6299 109.143L83.5498 108.902C83.3363 108.609 83.056 108.342 82.709 108.102C82.3887 107.861 82.0951 107.581 81.8281 107.261C81.5078 106.807 81.2809 106.46 81.1475 106.22C81.014 105.979 80.8805 105.779 80.7471 105.619C80.6136 105.459 80.4268 105.312 80.1865 105.179C79.9463 105.045 79.5592 104.858 79.0254 104.618C78.9987 104.618 78.8519 104.578 78.585 104.498C78.318 104.418 78.1178 104.325 77.9844 104.218C77.6107 104.004 77.2503 103.857 76.9033 103.777C76.5563 103.671 76.196 103.604 75.8223 103.577C75.4753 103.524 75.1149 103.484 74.7412 103.457C74.3675 103.404 73.9805 103.31 73.5801 103.177C73.2064 102.883 72.8994 102.59 72.6592 102.296C72.4189 101.976 72.0719 101.709 71.6182 101.495C71.5381 101.495 71.3913 101.482 71.1777 101.455C70.9909 101.402 70.7773 101.348 70.5371 101.295C70.3236 101.242 70.11 101.201 69.8965 101.175C69.7096 101.121 69.5895 101.095 69.5361 101.095L67.4541 98.9326C67.0804 98.6657 66.7334 98.4788 66.4131 98.3721C66.1195 98.2386 65.8392 98.1185 65.5723 98.0117C65.3053 97.9049 65.0384 97.7848 64.7715 97.6514C64.5312 97.5179 64.251 97.3044 63.9307 97.0107C63.6904 96.7972 63.5036 96.5837 63.3701 96.3701C63.2633 96.1566 63.1699 95.943 63.0898 95.7295C63.0098 95.516 62.9297 95.3024 62.8496 95.0889C62.7962 94.8753 62.7028 94.6618 62.5693 94.4482C62.516 94.2347 62.3958 93.9811 62.209 93.6875C62.0488 93.3939 61.9154 93.167 61.8086 93.0068C61.1947 92.2861 60.7008 91.6722 60.3271 91.165C59.9535 90.6312 59.6598 90.1107 59.4463 89.6035C59.2594 89.0964 59.126 88.5492 59.0459 87.9619C58.9925 87.348 58.9658 86.5739 58.9658 85.6396C58.9658 84.5186 59.0993 83.3574 59.3662 82.1562C59.6331 80.9284 60.0202 79.7406 60.5273 78.5928C61.0345 77.445 61.6484 76.3639 62.3691 75.3496C63.1165 74.3353 63.9574 73.4678 64.8916 72.7471C65.1585 72.4801 65.4521 72.2933 65.7725 72.1865C66.1195 72.0531 66.4665 71.9596 66.8135 71.9062C67.1872 71.8529 67.5609 71.8262 67.9346 71.8262C68.3083 71.7995 68.6686 71.7461 69.0156 71.666C69.3626 71.5859 69.6829 71.4658 69.9766 71.3057C70.2969 71.1455 70.6038 70.9854 70.8975 70.8252C71.2178 70.6383 71.5381 70.4782 71.8584 70.3447C72.2054 70.2113 72.5658 70.1445 72.9395 70.1445C74.0872 70.1445 75.1683 70.2113 76.1826 70.3447C77.2236 70.4782 78.2513 70.665 79.2656 70.9053C79.9596 71.0654 80.5869 71.279 81.1475 71.5459C81.7347 71.8128 82.3887 71.9463 83.1094 71.9463C83.6165 71.9463 84.0703 71.7995 84.4707 71.5059C84.8978 71.2122 85.3115 70.8919 85.7119 70.5449C86.1123 70.1712 86.526 69.8376 86.9531 69.5439C87.4069 69.2503 87.9141 69.1035 88.4746 69.1035C88.9818 69.1035 89.3154 69.3438 89.4756 69.8242C89.6357 70.3047 89.7158 70.7585 89.7158 71.1855L88.9551 73.7881L89.2754 78.5127V79.5537C89.2754 80.2744 89.2487 80.8883 89.1953 81.3955C89.1686 81.876 89.0618 82.4899 88.875 83.2373C88.8216 83.3708 88.7282 83.4909 88.5947 83.5977C88.488 83.7044 88.3945 83.7578 88.3145 83.7578C88.3145 83.8112 88.221 83.8379 88.0342 83.8379C87.9007 83.8379 87.6872 83.6644 87.3936 83.3174C87.1266 82.9704 86.793 82.5299 86.3926 81.9961C86.0189 81.4622 85.6185 80.875 85.1914 80.2344C84.7643 79.5938 84.3372 78.9798 83.9102 78.3926C83.4831 77.7786 83.0693 77.2314 82.6689 76.751C82.2952 76.2705 81.9616 75.9368 81.668 75.75C81.1341 75.403 80.5469 75.1227 79.9062 74.9092C79.2656 74.6689 78.5983 74.4954 77.9043 74.3887C77.2103 74.2552 76.5163 74.1618 75.8223 74.1084C75.1283 74.055 74.4876 74.0283 73.9004 74.0283C73.0195 74.0283 72.2588 74.1084 71.6182 74.2686C70.9775 74.4287 70.417 74.6823 69.9365 75.0293C69.4561 75.3763 69.029 75.8301 68.6553 76.3906C68.2816 76.9245 67.9346 77.5651 67.6143 78.3125C67.3473 78.8997 67.1204 79.3669 66.9336 79.7139C66.7734 80.0609 66.6266 80.3812 66.4932 80.6748C66.3864 80.9684 66.3063 81.2887 66.2529 81.6357C66.1995 81.9561 66.1729 82.3965 66.1729 82.957C66.1729 84.3717 66.4131 85.5996 66.8936 86.6406C67.374 87.6816 68.0146 88.5892 68.8154 89.3633C69.6162 90.1107 70.5505 90.738 71.6182 91.2451C72.6859 91.7256 73.8203 92.1393 75.0215 92.4863L75.4219 92.7666C76.0625 93.167 76.623 93.514 77.1035 93.8076C77.6107 94.0745 78.0911 94.3281 78.5449 94.5684C78.9987 94.7819 79.4658 94.9954 79.9463 95.209C80.4535 95.4225 81.0273 95.6761 81.668 95.9697L86.3125 98.9326C86.3659 98.9593 86.4193 99.0127 86.4727 99.0928C86.5527 99.1462 86.6328 99.1995 86.7129 99.2529C86.8197 99.333 86.9131 99.4131 86.9932 99.4932L87.7139 101.495C87.8206 101.682 87.9141 101.896 87.9941 102.136C88.1009 102.349 88.2077 102.509 88.3145 102.616C88.3945 102.67 88.528 102.803 88.7148 103.017C88.9017 103.23 89.0885 103.47 89.2754 103.737C89.4889 103.978 89.6624 104.218 89.7959 104.458C89.9561 104.672 90.0361 104.818 90.0361 104.898C90.1162 105.059 90.2096 105.299 90.3164 105.619C90.4499 105.913 90.57 106.22 90.6768 106.54C90.8102 106.86 90.917 107.167 90.9971 107.461C91.1038 107.755 91.1572 107.968 91.1572 108.102V113.987C91.1572 114.014 91.0905 114.188 90.957 114.508C90.8503 114.828 90.7301 115.095 90.5967 115.309C90.5166 115.335 90.4499 115.402 90.3965 115.509C90.3698 115.562 90.3431 115.629 90.3164 115.709C90.2897 115.789 90.223 115.963 90.1162 116.229C90.0361 116.496 89.9427 116.79 89.8359 117.11C89.7292 117.431 89.6224 117.724 89.5156 117.991C89.4089 118.258 89.3288 118.418 89.2754 118.472C89.1953 118.712 89.0485 118.965 88.835 119.232C88.6481 119.499 88.4346 119.753 88.1943 119.993C87.9541 120.233 87.7139 120.447 87.4736 120.634C87.2601 120.821 87.0999 120.954 86.9932 121.034C86.7529 121.354 86.6195 121.701 86.5928 122.075C86.5661 122.449 86.4059 122.729 86.1123 122.916C85.0713 123.29 84.2171 123.717 83.5498 124.197C82.8825 124.651 82.2419 125.091 81.6279 125.519C81.0407 125.919 80.4134 126.266 79.7461 126.56C79.0788 126.853 78.238 127 77.2236 127H76.7432C76.0225 126.947 75.542 126.92 75.3018 126.92C75.0882 126.893 74.9281 126.88 74.8213 126.88L66.9736 126.6ZM101.92 125.479C101.92 124.971 102.093 124.584 102.44 124.317C102.761 124.05 103.148 123.85 103.601 123.717C104.055 123.557 104.509 123.437 104.963 123.356C105.443 123.25 105.83 123.103 106.124 122.916C106.204 122.863 106.311 122.783 106.444 122.676C106.578 122.542 106.724 122.409 106.885 122.275C107.045 122.115 107.205 121.982 107.365 121.875C107.525 121.742 107.645 121.648 107.725 121.595L109.647 120.634C109.888 120.527 110.181 120.22 110.528 119.713C110.902 119.206 111.262 118.645 111.609 118.031C111.983 117.391 112.33 116.777 112.65 116.189C112.971 115.576 113.197 115.122 113.331 114.828C113.384 114.775 113.424 114.628 113.451 114.388C113.478 114.147 113.491 113.961 113.491 113.827C113.518 113.72 113.571 113.587 113.651 113.427C113.731 113.24 113.771 113.12 113.771 113.066C113.825 113.013 113.918 112.893 114.052 112.706C114.185 112.493 114.332 112.279 114.492 112.065C114.652 111.852 114.786 111.652 114.892 111.465C115.026 111.251 115.106 111.118 115.133 111.064C115.159 111.038 115.186 110.944 115.213 110.784C115.239 110.597 115.266 110.41 115.293 110.224C115.319 110.01 115.346 109.81 115.373 109.623C115.4 109.436 115.413 109.316 115.413 109.263C115.573 108.409 115.8 107.554 116.094 106.7C116.414 105.819 116.721 104.952 117.014 104.098C117.335 103.243 117.615 102.376 117.855 101.495C118.096 100.614 118.256 99.7201 118.336 98.8125L121.098 91.2051C121.472 90.1374 121.686 89.0163 121.739 87.8418C121.819 86.6406 122.019 85.4661 122.34 84.3184C122.793 83.2773 123.341 82.263 123.981 81.2754C124.622 80.2611 125.209 79.18 125.743 78.0322C125.93 77.445 126.037 76.8311 126.063 76.1904C126.117 75.5231 126.33 74.9092 126.704 74.3486C126.837 74.1618 127.171 73.8014 127.705 73.2676C128.239 72.7337 128.813 72.1865 129.427 71.626C130.04 71.0654 130.641 70.5716 131.228 70.1445C131.816 69.7174 132.243 69.5039 132.51 69.5039C133.017 69.5039 133.364 69.6908 133.551 70.0645C133.684 70.1712 133.818 70.3447 133.951 70.585C134.111 70.8252 134.191 70.972 134.191 71.0254C134.325 71.5059 134.512 71.9863 134.752 72.4668C134.992 72.9473 135.192 73.4678 135.352 74.0283L135.312 74.9092C135.312 75.2829 135.392 75.6833 135.553 76.1104C135.739 76.5107 135.886 76.8444 135.993 77.1113C136.287 78.0456 136.54 78.9531 136.754 79.834C136.994 80.7148 137.181 81.5957 137.314 82.4766C137.421 83.0104 137.595 83.5042 137.835 83.958C138.075 84.3851 138.195 84.8789 138.195 85.4395L138.155 86.0801C138.636 86.5072 138.996 86.8942 139.236 87.2412C139.476 87.5882 139.663 87.9486 139.797 88.3223C139.957 88.6693 140.104 89.0563 140.237 89.4834C140.397 89.8838 140.638 90.3776 140.958 90.9648C141.225 91.4987 141.425 92.0059 141.558 92.4863C141.692 92.9401 141.799 93.4072 141.879 93.8877C141.985 94.3682 142.092 94.8753 142.199 95.4092C142.306 95.943 142.479 96.5169 142.72 97.1309C142.746 97.2643 142.826 97.4912 142.96 97.8115C143.12 98.1318 143.2 98.3454 143.2 98.4521V99.9736C143.2 100.027 143.253 100.147 143.36 100.334C143.467 100.521 143.587 100.734 143.721 100.975C143.854 101.188 143.974 101.402 144.081 101.615C144.188 101.829 144.241 101.976 144.241 102.056C144.241 102.082 144.241 102.162 144.241 102.296C144.268 102.403 144.281 102.536 144.281 102.696C144.308 102.83 144.334 102.963 144.361 103.097C144.388 103.23 144.415 103.297 144.441 103.297L145.562 104.418C145.749 104.578 145.869 104.765 145.923 104.979C145.976 105.192 146.016 105.432 146.043 105.699C146.069 105.939 146.096 106.193 146.123 106.46C146.15 106.7 146.23 106.94 146.363 107.181C146.683 107.928 146.964 108.702 147.204 109.503C147.444 110.277 147.764 111.051 148.165 111.825C148.405 112.386 148.605 112.986 148.765 113.627C148.926 114.241 149.006 114.841 149.006 115.429V115.909C149.353 116.523 149.74 117.07 150.167 117.551C150.594 118.031 150.941 118.498 151.208 118.952C151.448 119.539 151.702 120.007 151.969 120.354C152.235 120.701 152.489 120.981 152.729 121.194C152.996 121.408 153.25 121.581 153.49 121.715C153.73 121.822 153.971 121.942 154.211 122.075C154.798 122.422 155.399 122.676 156.013 122.836C156.653 122.996 157.454 123.156 158.415 123.316L159.536 123.597C159.883 123.81 160.096 124.131 160.177 124.558C160.257 124.958 160.297 125.305 160.297 125.599C160.297 126.159 160.07 126.573 159.616 126.84C159.189 127.08 158.749 127.2 158.295 127.2L154.891 127H154.051C153.917 126.893 153.73 126.813 153.49 126.76C153.276 126.68 153.05 126.626 152.809 126.6C152.569 126.573 152.342 126.56 152.129 126.56C151.942 126.56 151.822 126.546 151.768 126.52H147.004C146.79 126.226 146.59 126.066 146.403 126.039C146.243 125.986 146.003 125.959 145.682 125.959C144.588 125.959 143.44 126.106 142.239 126.399C141.065 126.666 139.81 126.8 138.475 126.8H137.595C137.167 126.8 136.754 126.786 136.353 126.76C135.98 126.733 135.646 126.626 135.352 126.439C135.219 126.359 135.152 126.132 135.152 125.759L135.232 125.118C135.286 124.985 135.312 124.865 135.312 124.758C135.312 124.651 135.312 124.571 135.312 124.518C135.312 124.331 135.392 124.211 135.553 124.157C136.033 123.944 136.58 123.784 137.194 123.677C137.808 123.57 138.395 123.45 138.956 123.316C139.516 123.183 139.984 122.996 140.357 122.756C140.758 122.516 140.958 122.155 140.958 121.675V121.595C140.931 120.981 140.878 120.287 140.798 119.513C140.744 118.712 140.718 117.924 140.718 117.15C140.718 116.883 140.624 116.603 140.437 116.31C140.277 116.016 140.184 115.749 140.157 115.509V113.066C140.104 112.719 139.93 112.172 139.637 111.425C139.37 110.651 139.023 109.89 138.596 109.143C138.195 108.395 137.755 107.741 137.274 107.181C136.794 106.593 136.313 106.3 135.833 106.3C135.139 106.3 134.418 106.447 133.671 106.74C132.95 107.034 132.216 107.181 131.469 107.181C130.828 107.181 130.214 107.061 129.627 106.82C129.066 106.553 128.399 106.42 127.625 106.42H125.062C124.502 106.42 123.928 106.46 123.341 106.54C122.78 106.593 122.26 106.767 121.779 107.061C120.952 107.541 120.191 108.195 119.497 109.022C118.803 109.823 118.296 110.824 117.975 112.025L117.695 114.828C117.695 114.882 117.668 115.015 117.615 115.229C117.562 115.442 117.508 115.669 117.455 115.909C117.401 116.149 117.348 116.376 117.295 116.59C117.241 116.777 117.215 116.897 117.215 116.95C117.215 117.004 117.201 117.084 117.175 117.19C117.148 117.297 117.135 117.404 117.135 117.511C117.135 117.991 117.215 118.338 117.375 118.552C117.535 118.765 117.735 119.086 117.975 119.513C118.109 119.753 118.282 120.073 118.496 120.474C118.736 120.874 118.976 121.221 119.217 121.515C119.59 121.835 120.084 122.089 120.698 122.275C121.339 122.462 121.966 122.662 122.58 122.876C123.194 123.09 123.714 123.356 124.141 123.677C124.595 123.997 124.822 124.438 124.822 124.998V125.278C124.689 126.319 124.302 127 123.661 127.32C123.02 127.667 122.193 127.841 121.179 127.841L117.695 126.92H116.254C115.773 126.92 115.279 126.933 114.772 126.96C114.265 126.987 113.771 127.027 113.291 127.08C112.837 127.133 112.423 127.2 112.05 127.28C111.703 127.387 111.436 127.507 111.249 127.641C110.582 127.641 109.914 127.654 109.247 127.681C108.606 127.707 108.019 127.734 107.485 127.761C106.978 127.787 106.551 127.801 106.204 127.801C105.884 127.827 105.697 127.841 105.643 127.841C105.296 127.841 104.909 127.787 104.482 127.681C104.055 127.574 103.641 127.414 103.241 127.2C102.867 126.987 102.56 126.746 102.32 126.479C102.053 126.186 101.92 125.852 101.92 125.479ZM122.54 98.332C122.513 98.6257 122.486 98.9193 122.46 99.2129C122.433 99.4798 122.42 99.7334 122.42 99.9736C122.42 100.721 122.593 101.228 122.94 101.495C123.287 101.735 123.821 101.855 124.542 101.855C124.622 101.855 124.689 101.829 124.742 101.775C124.769 101.749 124.795 101.709 124.822 101.655C124.875 101.655 125.049 101.629 125.343 101.575C125.663 101.522 125.89 101.482 126.023 101.455C126.263 101.482 126.49 101.522 126.704 101.575C126.944 101.629 127.131 101.655 127.264 101.655H133.551C135.366 101.655 136.273 100.828 136.273 99.1729C136.273 98.9326 136.18 98.6257 135.993 98.252C135.833 97.8783 135.633 97.4779 135.392 97.0508C135.152 96.597 134.912 96.1299 134.672 95.6494C134.458 95.1689 134.298 94.7018 134.191 94.248C134.191 94.0612 134.124 93.901 133.991 93.7676L132.109 90.9648C132.109 90.8314 132.056 90.6979 131.949 90.5645C131.869 90.431 131.802 90.2975 131.749 90.1641L131.549 89.3232C131.415 88.7627 131.255 88.082 131.068 87.2812C130.881 86.4805 130.654 85.7197 130.388 84.999C130.121 84.2783 129.814 83.6644 129.467 83.1572C129.146 82.6501 128.786 82.3965 128.386 82.3965C128.145 82.3965 127.838 82.7435 127.465 83.4375C127.091 84.1315 126.677 85.0124 126.223 86.0801C125.796 87.1478 125.356 88.3356 124.902 89.6436C124.475 90.9248 124.088 92.1527 123.741 93.3271C123.394 94.5016 123.1 95.556 122.86 96.4902C122.647 97.3978 122.54 98.0117 122.54 98.332ZM168.256 124.998C168.256 124.571 168.35 124.117 168.537 123.637C168.75 123.156 169.071 122.916 169.498 122.916L172.821 122.636C173.488 122.502 174.142 122.382 174.783 122.275C175.423 122.169 176.037 122.035 176.625 121.875C177.239 121.688 177.812 121.448 178.346 121.154C178.88 120.861 179.374 120.434 179.828 119.873C179.935 119.686 180.015 119.513 180.068 119.353C180.148 119.166 180.188 118.965 180.188 118.752C180.188 118.325 180.295 117.938 180.508 117.591C180.508 116.924 180.495 116.323 180.468 115.789C180.468 115.229 180.415 114.601 180.308 113.907C180.255 113.587 180.228 113.32 180.228 113.106C180.228 112.893 180.228 112.719 180.228 112.586C180.228 112.159 180.241 111.865 180.268 111.705C180.295 111.518 180.375 111.211 180.508 110.784C180.508 110.01 180.495 109.369 180.468 108.862C180.442 108.328 180.428 107.821 180.428 107.341C180.428 106.433 180.575 105.499 180.869 104.538L180.508 98.6123C180.455 98.5055 180.402 98.292 180.348 97.9717C180.322 97.6514 180.308 97.4245 180.308 97.291C180.442 96.9707 180.562 96.6237 180.669 96.25C180.802 95.8763 180.869 95.4626 180.869 95.0088C180.789 94.2347 180.735 93.4873 180.709 92.7666C180.709 92.0459 180.642 91.2852 180.508 90.4844C180.455 90.2708 180.362 90.0973 180.228 89.9639C180.095 89.8304 180.028 89.6436 180.028 89.4033C180.028 89.1097 180.095 88.9095 180.228 88.8027C180.362 88.6693 180.455 88.5358 180.508 88.4023V86.4805C180.508 85.9199 180.495 85.2926 180.468 84.5986C180.468 83.8779 180.428 83.1439 180.348 82.3965C180.295 81.6491 180.188 80.9017 180.028 80.1543C179.868 79.3802 179.641 78.6462 179.347 77.9521C179.214 77.8454 179.027 77.7119 178.787 77.5518C178.546 77.3649 178.306 77.1781 178.066 76.9912C177.852 76.8044 177.652 76.6442 177.465 76.5107C177.305 76.3773 177.212 76.3105 177.185 76.3105C176.945 76.1237 176.598 75.9635 176.144 75.8301C175.717 75.6699 175.237 75.5231 174.703 75.3896C174.169 75.2295 173.622 75.0693 173.061 74.9092C172.527 74.749 172.033 74.5622 171.58 74.3486C171.126 74.1084 170.752 73.8415 170.459 73.5479C170.192 73.2275 170.058 72.8538 170.058 72.4268C170.058 72.2666 170.152 72.1331 170.338 72.0264C170.525 71.9196 170.752 71.8395 171.019 71.7861C171.286 71.7061 171.54 71.6527 171.78 71.626C172.02 71.5993 172.207 71.5859 172.34 71.5859C172.661 71.6393 172.901 71.666 173.061 71.666C173.221 71.666 173.355 71.666 173.462 71.666C173.675 71.666 173.809 71.6393 173.862 71.5859C174.769 71.5326 175.704 71.4925 176.665 71.4658C177.626 71.4124 178.587 71.3857 179.547 71.3857C180.455 71.3857 181.323 71.4124 182.15 71.4658C183.004 71.4925 183.938 71.5326 184.953 71.5859C185.06 71.7194 185.18 71.8128 185.313 71.8662C185.473 71.9196 185.607 71.9463 185.713 71.9463C186.915 71.8395 187.942 71.7194 188.796 71.5859C189.677 71.4525 190.478 71.319 191.199 71.1855C191.92 71.0254 192.614 70.8652 193.281 70.7051C193.948 70.5449 194.682 70.3981 195.483 70.2646H196.444C196.951 70.2646 197.565 70.278 198.286 70.3047C199.033 70.3314 199.727 70.4115 200.368 70.5449C201.035 70.6784 201.596 70.8786 202.049 71.1455C202.53 71.3857 202.77 71.7461 202.77 72.2266C202.77 72.4668 202.757 72.7604 202.73 73.1074C202.703 73.4277 202.623 73.708 202.49 73.9482C202.356 74.1618 201.956 74.3353 201.289 74.4688C200.648 74.6022 199.941 74.709 199.167 74.7891C198.393 74.8691 197.632 74.9225 196.884 74.9492C196.137 74.9759 195.603 74.9893 195.283 74.9893C195.149 75.0426 195.016 75.0827 194.882 75.1094C194.749 75.1361 194.615 75.1628 194.482 75.1895C194.375 75.1895 194.268 75.1895 194.162 75.1895L193.481 75.3896C192.52 75.4964 191.786 75.5898 191.279 75.6699C190.772 75.75 190.385 75.8701 190.118 76.0303C189.851 76.1904 189.677 76.404 189.597 76.6709C189.544 76.9111 189.477 77.2715 189.397 77.752C189.344 78.2057 189.304 78.6729 189.277 79.1533C189.277 79.6071 189.224 80.1276 189.117 80.7148L188.556 81.9961C188.556 82.3431 188.623 82.7168 188.756 83.1172C188.89 83.5176 189.037 83.9313 189.197 84.3584C189.384 84.7588 189.544 85.1725 189.677 85.5996C189.811 86.0267 189.878 86.4404 189.878 86.8408L189.597 89.9238L190.158 92.4863C190.158 93.1003 190.091 93.6475 189.958 94.1279C189.851 94.5817 189.731 95.0755 189.597 95.6094C189.464 96.3835 189.384 97.2376 189.357 98.1719C189.33 99.1061 189.317 99.9469 189.317 100.694L189.237 101.936C189.237 102.603 189.357 103.043 189.597 103.257V111.345C189.464 111.585 189.384 111.772 189.357 111.905C189.33 112.012 189.317 112.132 189.317 112.266C189.317 112.666 189.41 113.04 189.597 113.387C189.784 113.707 189.878 114.014 189.878 114.308C189.878 114.868 189.811 115.482 189.677 116.149C189.571 116.79 189.45 117.337 189.317 117.791C189.317 117.844 189.304 117.924 189.277 118.031C189.25 118.138 189.224 118.258 189.197 118.392C189.17 118.525 189.143 118.672 189.117 118.832C189.197 119.259 189.45 119.686 189.878 120.113C190.305 120.54 190.798 120.927 191.359 121.274C191.92 121.621 192.493 121.902 193.081 122.115C193.668 122.329 194.162 122.436 194.562 122.436L196.324 122.075C196.431 122.075 196.564 122.142 196.724 122.275C196.911 122.382 197.218 122.436 197.645 122.436C197.992 122.436 198.299 122.342 198.566 122.155C198.86 121.968 199.22 121.875 199.647 121.875L200.888 122.436L203.451 122.636L204.572 122.916H205.253C206 122.809 206.734 122.716 207.455 122.636C208.202 122.529 208.923 122.409 209.617 122.275C210.338 122.115 211.032 121.915 211.699 121.675C212.366 121.408 212.98 121.034 213.541 120.554L213.661 120.434C213.768 120.327 213.821 120.207 213.821 120.073C213.954 119.646 214.128 119.299 214.341 119.032C214.555 118.739 214.782 118.485 215.022 118.271C215.289 118.031 215.556 117.818 215.823 117.631C216.116 117.417 216.397 117.164 216.664 116.87C217.037 116.576 217.371 116.163 217.665 115.629C217.958 115.068 218.292 114.561 218.666 114.107C218.933 113.84 219.253 113.56 219.627 113.267C220 112.946 220.387 112.666 220.788 112.426C221.188 112.159 221.575 111.945 221.949 111.785C222.349 111.625 222.71 111.545 223.03 111.545C223.163 111.545 223.337 111.558 223.55 111.585C223.764 111.612 223.964 111.652 224.151 111.705C224.365 111.758 224.538 111.839 224.671 111.945C224.832 112.025 224.912 112.132 224.912 112.266C224.912 112.853 224.858 113.347 224.752 113.747C224.645 114.121 224.485 114.468 224.271 114.788C224.084 115.108 223.857 115.415 223.59 115.709C223.35 116.003 223.097 116.323 222.83 116.67C222.723 116.803 222.643 116.99 222.589 117.23C222.536 117.471 222.509 117.684 222.509 117.871C222.509 118.031 222.523 118.245 222.549 118.512C222.603 118.752 222.629 118.925 222.629 119.032C222.549 119.379 222.416 119.7 222.229 119.993C222.069 120.287 221.869 120.554 221.629 120.794C221.415 121.034 221.201 121.261 220.988 121.475C220.774 121.688 220.601 121.888 220.467 122.075L220.267 123.316C219.974 124.678 219.373 125.692 218.465 126.359C217.585 127.027 216.477 127.36 215.142 127.36L211.979 126.72L210.698 127.36H206.334C205.8 127.04 205.319 126.853 204.892 126.8C204.492 126.746 204.011 126.72 203.451 126.72C202.837 126.72 202.263 126.826 201.729 127.04C201.195 127.254 200.688 127.36 200.208 127.36H199.647L193.481 126.52L192.72 126.239H189.117C188.823 125.946 188.57 125.785 188.356 125.759C188.169 125.705 187.889 125.679 187.515 125.679C187.222 125.679 186.995 125.692 186.835 125.719C186.701 125.745 186.514 125.852 186.274 126.039H179.828C179.427 126.359 178.8 126.626 177.946 126.84C177.092 127.027 176.184 127.174 175.223 127.28C174.289 127.387 173.381 127.454 172.501 127.48C171.62 127.534 170.939 127.561 170.459 127.561C170.112 127.561 169.805 127.48 169.538 127.32C169.271 127.16 169.044 126.96 168.857 126.72C168.67 126.453 168.523 126.173 168.417 125.879C168.31 125.585 168.256 125.292 168.256 124.998ZM235.354 124.638C235.354 124.131 235.541 123.717 235.914 123.396C236.315 123.076 236.782 122.823 237.316 122.636C237.876 122.422 238.437 122.275 238.997 122.195C239.558 122.115 240.025 122.075 240.399 122.075H243.642C243.882 122.022 244.189 121.875 244.563 121.635C244.937 121.395 245.297 121.114 245.644 120.794C246.018 120.447 246.338 120.073 246.605 119.673C246.899 119.246 247.072 118.845 247.125 118.472C247.205 117.911 247.246 117.311 247.246 116.67C247.246 116.163 247.205 115.629 247.125 115.068L247.686 114.188C247.312 112.826 247.059 111.465 246.925 110.104C246.792 108.742 246.725 107.408 246.725 106.1C246.725 105.833 246.738 105.499 246.765 105.099C246.818 104.698 246.872 104.298 246.925 103.897C247.005 103.47 247.085 103.07 247.165 102.696C247.246 102.296 247.326 101.949 247.406 101.655C247.432 101.575 247.472 101.482 247.526 101.375C247.633 101.161 247.686 101.028 247.686 100.975C247.766 100.788 247.859 100.614 247.966 100.454C248.02 100.321 248.073 100.187 248.126 100.054C248.206 99.8936 248.246 99.7734 248.246 99.6934C248.246 99.4798 248.14 99.293 247.926 99.1328C247.713 98.9727 247.539 98.8926 247.406 98.8926C247.459 98.0117 247.499 97.1309 247.526 96.25C247.579 95.3424 247.606 94.4616 247.606 93.6074C247.606 92.6999 247.579 91.819 247.526 90.9648C247.499 90.084 247.459 89.1898 247.406 88.2822C247.272 87.9085 247.192 87.6416 247.165 87.4814C247.139 87.2946 247.125 87.0544 247.125 86.7607L247.406 84.3984L247.125 80.1143C247.125 79.7939 246.979 79.4336 246.685 79.0332C246.418 78.6328 246.098 78.2591 245.724 77.9121C245.35 77.5384 244.963 77.2314 244.563 76.9912C244.189 76.7243 243.882 76.5641 243.642 76.5107H240.759L240.439 76.3506C240.359 76.2972 240.279 76.2572 240.199 76.2305C240.119 76.1771 240.052 76.1504 239.998 76.1504C239.625 76.0436 239.198 75.9635 238.717 75.9102C238.263 75.8301 237.836 75.71 237.436 75.5498C237.036 75.3896 236.702 75.1628 236.435 74.8691C236.168 74.5488 236.035 74.0951 236.035 73.5078C236.035 73.0273 236.101 72.667 236.235 72.4268C236.368 72.1598 236.555 71.973 236.795 71.8662C237.062 71.7327 237.369 71.6527 237.716 71.626C238.09 71.5993 238.504 71.5859 238.957 71.5859C239.678 71.5859 240.372 71.6126 241.039 71.666C241.707 71.7194 242.281 71.9196 242.761 72.2666C242.895 72.2399 243.028 72.2132 243.162 72.1865C243.295 72.1598 243.415 72.1465 243.522 72.1465H244.283C245.564 72.1465 246.885 72.2533 248.246 72.4668C249.635 72.6536 250.902 72.8005 252.05 72.9072L254.332 73.3076C254.679 73.3076 255.026 73.2542 255.373 73.1475C255.747 73.014 256.121 72.8805 256.495 72.7471C256.895 72.5869 257.282 72.4535 257.656 72.3467C258.029 72.2132 258.403 72.1465 258.777 72.1465C259.044 72.1465 259.271 72.2132 259.457 72.3467C259.644 72.4801 259.938 72.5469 260.338 72.5469C260.472 72.5469 260.592 72.4801 260.699 72.3467C260.832 72.2132 261.046 72.1465 261.339 72.1465C261.606 72.1465 261.806 72.1598 261.94 72.1865C262.1 72.2132 262.247 72.3333 262.38 72.5469H263.942C264.502 72.5469 265.09 72.4535 265.704 72.2666C266.317 72.0531 266.931 71.9463 267.545 71.9463C267.919 71.9463 268.213 71.973 268.426 72.0264C268.64 72.0798 268.947 72.2533 269.347 72.5469L276.554 72.9072C276.901 72.9339 277.221 72.974 277.515 73.0273C277.782 73.0807 278.062 73.1341 278.356 73.1875C278.649 73.2142 278.903 73.2542 279.117 73.3076C279.25 73.3076 279.41 73.321 279.597 73.3477C279.784 73.3743 279.957 73.4277 280.118 73.5078C280.278 73.5879 280.411 73.6947 280.518 73.8281C280.651 73.9616 280.718 74.1351 280.718 74.3486C280.798 74.5889 280.878 74.9893 280.958 75.5498C281.038 76.0837 281.105 76.6576 281.159 77.2715C281.239 77.8854 281.292 78.4593 281.319 78.9932C281.372 79.527 281.399 79.9007 281.399 80.1143C281.532 81.0218 281.639 81.9427 281.719 82.877C281.799 83.8112 281.839 84.7321 281.839 85.6396H281.199C280.611 85.6396 280.131 85.1859 279.757 84.2783C279.517 83.958 279.343 83.7445 279.237 83.6377C279.13 83.5042 279.05 83.3708 278.996 83.2373C278.623 82.7301 278.236 82.1829 277.835 81.5957C277.462 80.9818 277.115 80.4079 276.794 79.874C276.474 79.3402 276.194 78.8597 275.954 78.4326C275.713 77.9788 275.553 77.6585 275.473 77.4717C275.153 77.3382 274.819 77.2448 274.472 77.1914C274.125 77.1113 273.791 77.0446 273.471 76.9912C273.151 76.9111 272.857 76.8177 272.59 76.7109C272.323 76.5775 272.096 76.3639 271.91 76.0703C271.696 75.6699 271.282 75.4697 270.668 75.4697C270.428 75.4697 270.295 75.4964 270.268 75.5498C270.135 75.5765 269.961 75.6032 269.747 75.6299C269.561 75.6566 269.36 75.6699 269.147 75.6699C268.693 75.6699 268.239 75.6566 267.786 75.6299C267.332 75.5765 266.958 75.5498 266.664 75.5498C266.478 75.5498 266.357 75.5231 266.304 75.4697C266.251 75.4163 266.157 75.3896 266.024 75.3896C265.97 75.3896 265.917 75.3763 265.864 75.3496C265.837 75.3229 265.797 75.2962 265.744 75.2695C265.156 75.1895 264.569 75.1361 263.982 75.1094C263.395 75.0827 262.807 75.0693 262.22 75.0693C261.633 75.0693 261.059 75.0827 260.498 75.1094C259.938 75.1361 259.364 75.1895 258.777 75.2695C258.59 75.3229 258.376 75.4297 258.136 75.5898C257.896 75.75 257.656 75.9502 257.415 76.1904C257.202 76.404 257.002 76.6309 256.815 76.8711C256.628 77.1113 256.508 77.3382 256.454 77.5518C256.241 78.4593 256.107 79.487 256.054 80.6348C256.001 81.7559 255.974 82.917 255.974 84.1182V88.2822C255.734 88.5758 255.587 88.8828 255.534 89.2031C255.48 89.4967 255.454 89.8571 255.454 90.2842V91.6855C255.454 92.3262 255.467 92.9535 255.494 93.5674C255.547 94.1813 255.654 94.7819 255.814 95.3691C255.974 95.9564 256.201 96.5303 256.495 97.0908C256.815 97.6247 257.242 98.1452 257.776 98.6523L264.222 98.8926C264.729 98.8926 265.223 98.7992 265.704 98.6123C265.837 98.5589 265.997 98.5189 266.184 98.4922C266.371 98.4388 266.558 98.4121 266.745 98.4121L268.306 98.4521C268.76 98.4521 269.174 98.3187 269.547 98.0518C269.761 97.9984 270.001 97.9049 270.268 97.7715C270.562 97.6113 270.842 97.4378 271.109 97.251C271.402 97.0374 271.669 96.8372 271.91 96.6504C272.15 96.4368 272.337 96.25 272.47 96.0898C272.63 95.7695 272.804 95.249 272.991 94.5283C273.204 93.8076 273.431 93.0869 273.671 92.3662C273.938 91.6455 274.218 91.0049 274.512 90.4443C274.832 89.8838 275.193 89.6035 275.593 89.6035C275.94 89.6035 276.26 89.8571 276.554 90.3643V94.0479C276.554 94.3949 276.514 94.7018 276.434 94.9688C276.381 95.2357 276.26 95.6094 276.074 96.0898L275.593 96.7305L275.793 98.0518C275.793 98.1585 275.82 98.4788 275.873 99.0127C275.927 99.5199 275.98 100.12 276.034 100.814C276.087 101.482 276.14 102.176 276.194 102.896C276.247 103.59 276.274 104.164 276.274 104.618L276.074 106.1C276.074 106.553 276.154 106.94 276.314 107.261C276.474 107.581 276.554 107.875 276.554 108.142C276.554 108.836 276.421 109.436 276.154 109.943C275.913 110.451 275.446 110.704 274.752 110.704C274.405 110.704 274.138 110.651 273.952 110.544C273.765 110.41 273.618 110.264 273.511 110.104C273.431 109.917 273.378 109.716 273.351 109.503C273.324 109.263 273.311 109.022 273.311 108.782C273.311 108.595 273.311 108.435 273.311 108.302C273.311 108.142 273.284 107.981 273.231 107.821L272.11 105.859V104.618C272.083 104.271 271.776 103.938 271.189 103.617C270.602 103.297 269.868 103.003 268.987 102.736C268.106 102.469 267.132 102.229 266.064 102.016C265.023 101.802 263.995 101.615 262.981 101.455C261.993 101.295 261.086 101.175 260.258 101.095C259.457 101.015 258.87 100.975 258.496 100.975C258.016 100.975 257.589 101.135 257.215 101.455C256.868 101.749 256.561 102.122 256.294 102.576C256.054 103.003 255.867 103.47 255.734 103.978C255.6 104.458 255.507 104.885 255.454 105.259V108.422L255.974 114.588V118.071C256.027 118.685 256.268 119.299 256.695 119.913C257.149 120.527 257.682 121.088 258.296 121.595C258.91 122.102 259.564 122.516 260.258 122.836C260.952 123.156 261.579 123.343 262.14 123.396L264.983 123.597L265.744 123.877H268.306C268.947 123.877 269.534 123.877 270.068 123.877C270.602 123.877 271.135 123.864 271.669 123.837C272.203 123.81 272.75 123.784 273.311 123.757C273.871 123.73 274.512 123.677 275.233 123.597L278.436 122.355C278.863 122.062 279.384 121.635 279.997 121.074C280.611 120.514 281.212 119.926 281.799 119.312C282.413 118.672 282.974 118.045 283.481 117.431C283.988 116.817 284.362 116.31 284.602 115.909C284.735 115.829 284.869 115.629 285.002 115.309C285.136 114.962 285.283 114.601 285.443 114.228C285.63 113.827 285.83 113.48 286.043 113.187C286.284 112.893 286.564 112.746 286.884 112.746C287.178 112.746 287.391 112.866 287.525 113.106C287.658 113.347 287.725 113.587 287.725 113.827L287.004 116.35C286.604 117.738 286.217 119.152 285.843 120.594C285.469 122.008 285.216 123.45 285.082 124.918C284.522 125.772 283.815 126.293 282.96 126.479C282.106 126.64 281.225 126.72 280.318 126.72C280.024 126.72 279.731 126.72 279.437 126.72C279.143 126.72 278.876 126.746 278.636 126.8L277.795 127C277.528 127 277.315 126.973 277.155 126.92C276.995 126.867 276.848 126.813 276.714 126.76C276.581 126.706 276.447 126.653 276.314 126.6C276.18 126.546 276.007 126.52 275.793 126.52L273.231 126.8L271.91 126.52L265.744 127C263.795 127 261.846 126.92 259.898 126.76C257.949 126.6 255.934 126.52 253.852 126.52L248.727 127L245.123 126.8C244.643 126.8 244.176 126.853 243.722 126.96C243.268 127.067 242.828 127.187 242.401 127.32C241.974 127.454 241.56 127.574 241.16 127.681C240.759 127.787 240.372 127.841 239.998 127.841C239.545 127.841 239.051 127.774 238.517 127.641C237.983 127.507 237.476 127.307 236.996 127.04C236.542 126.773 236.155 126.439 235.834 126.039C235.514 125.639 235.354 125.172 235.354 124.638ZM301.611 125.759C301.611 125.332 301.651 125.051 301.731 124.918C301.811 124.785 301.971 124.624 302.211 124.438C302.638 124.144 303.172 123.837 303.813 123.517C304.453 123.196 305.107 122.876 305.775 122.556C306.442 122.235 307.083 121.928 307.696 121.635C308.31 121.341 308.818 121.074 309.218 120.834C309.805 119.793 310.219 118.685 310.459 117.511C310.699 116.336 310.82 115.135 310.82 113.907V112.746C310.82 112.533 310.82 112.319 310.82 112.105C310.82 111.892 310.833 111.678 310.86 111.465C310.886 111.411 310.913 111.318 310.94 111.185C310.966 111.051 310.993 110.904 311.02 110.744C311.046 110.584 311.06 110.437 311.06 110.304C311.086 110.144 311.1 110.023 311.1 109.943L311.58 109.143L311.62 107.661C311.62 107.528 311.594 107.381 311.54 107.221C311.514 107.034 311.367 106.767 311.1 106.42L311.78 104.218C311.78 104.004 311.754 103.831 311.7 103.697C311.674 103.564 311.634 103.43 311.58 103.297C311.527 103.243 311.474 103.137 311.42 102.977C311.367 102.816 311.34 102.656 311.34 102.496V101.735L311.78 98.6123L311.34 95.8896C311.34 95.2757 311.474 94.6618 311.74 94.0479C312.034 93.4339 312.181 92.8333 312.181 92.2461L311.981 90.6846C311.981 90.2575 312.021 89.8037 312.101 89.3232C312.208 88.8428 312.314 88.3623 312.421 87.8818C312.555 87.3747 312.675 86.8675 312.781 86.3604C312.888 85.8265 312.942 85.306 312.942 84.7988C312.835 84.6387 312.675 84.4251 312.461 84.1582C312.248 83.8913 312.087 83.651 311.981 83.4375C311.981 83.0905 311.941 82.6501 311.861 82.1162C311.807 81.5824 311.674 81.0752 311.46 80.5947C311.273 80.0876 311.006 79.6605 310.659 79.3135C310.339 78.9665 309.925 78.793 309.418 78.793L306.095 79.0732H305.254C304.694 78.9932 304.16 78.9131 303.653 78.833C303.172 78.7529 302.732 78.6328 302.331 78.4727C301.958 78.2858 301.651 78.0322 301.41 77.7119C301.197 77.3916 301.09 76.9378 301.09 76.3506C301.09 75.8701 301.117 75.5098 301.17 75.2695C301.224 75.0293 301.33 74.8558 301.49 74.749C301.651 74.6423 301.864 74.5755 302.131 74.5488C302.425 74.4954 302.798 74.4287 303.252 74.3486L304.213 73.9482H305.534C307.349 73.9482 309.085 74.0684 310.739 74.3086C312.394 74.5221 314.103 74.6289 315.864 74.6289C316.292 74.6289 316.652 74.5889 316.946 74.5088C317.266 74.402 317.599 74.3486 317.946 74.3486C319.388 74.9092 320.469 75.6432 321.19 76.5508C321.937 77.4583 322.498 78.6462 322.871 80.1143L322.911 80.5947C322.991 81.1286 323.071 81.5557 323.152 81.876C323.232 82.1963 323.352 82.4766 323.512 82.7168C323.699 82.957 323.952 83.1973 324.273 83.4375C324.593 83.651 325.047 83.9046 325.634 84.1982L325.554 85.0391C325.554 85.4395 325.594 85.8398 325.674 86.2402C325.781 86.6139 325.901 87.001 326.034 87.4014C326.195 87.7751 326.341 88.1621 326.475 88.5625C326.608 88.9629 326.715 89.4033 326.795 89.8838C326.795 89.9639 326.808 90.1107 326.835 90.3242C326.862 90.5111 326.889 90.7113 326.915 90.9248C326.969 91.1383 327.009 91.3385 327.035 91.5254C327.062 91.7122 327.075 91.8324 327.075 91.8857C327.236 92.2861 327.462 92.7399 327.756 93.2471C328.076 93.7275 328.397 94.2214 328.717 94.7285C329.037 95.2357 329.358 95.7428 329.678 96.25C329.998 96.7572 330.265 97.2109 330.479 97.6113C331.173 99.0794 331.84 100.561 332.481 102.056C333.121 103.55 333.749 105.059 334.363 106.58L335.524 108.502C335.684 108.796 335.804 109.116 335.884 109.463C335.964 109.783 336.057 110.077 336.164 110.344C336.298 110.611 336.458 110.838 336.645 111.024C336.832 111.185 337.112 111.265 337.486 111.265C337.886 111.265 338.166 111.225 338.326 111.145C338.487 111.064 338.593 110.931 338.647 110.744C338.7 110.557 338.74 110.344 338.767 110.104C338.793 109.837 338.874 109.516 339.007 109.143C339.007 109.089 339.127 108.982 339.367 108.822C339.634 108.662 339.794 108.555 339.848 108.502C340.355 107.835 340.782 107.127 341.129 106.38C341.476 105.606 341.783 104.818 342.05 104.018C342.344 103.19 342.611 102.363 342.851 101.535C343.091 100.708 343.358 99.8936 343.652 99.0928C343.652 99.0661 343.705 98.9193 343.812 98.6523C343.945 98.3854 344.079 98.0918 344.212 97.7715C344.372 97.4245 344.519 97.0908 344.653 96.7705C344.813 96.4502 344.919 96.2233 344.973 96.0898C345.373 95.0755 345.694 94.1413 345.934 93.2871C346.201 92.4329 346.548 91.5521 346.975 90.6445L347.255 89.8838C347.789 88.8695 348.349 87.8151 348.937 86.7207C349.551 85.5996 350.205 84.6921 350.899 83.998C350.899 83.571 350.859 83.264 350.779 83.0771C350.725 82.8903 350.698 82.7301 350.698 82.5967C350.698 82.4632 350.725 82.263 350.779 81.9961C350.832 81.7025 350.899 81.4089 350.979 81.1152C351.059 80.7949 351.126 80.5146 351.179 80.2744C351.232 80.0075 351.259 79.834 351.259 79.7539C351.312 79.6471 351.366 79.4336 351.419 79.1133C351.499 78.793 351.539 78.5661 351.539 78.4326L352.38 77.5518C352.38 77.4717 352.393 77.3382 352.42 77.1514C352.447 76.9378 352.46 76.7376 352.46 76.5508C352.487 76.3372 352.514 76.1504 352.54 75.9902C352.567 75.8301 352.58 75.7233 352.58 75.6699C352.74 75.3229 353.007 75.016 353.381 74.749C353.781 74.4554 354.209 74.2285 354.662 74.0684C355.143 73.8815 355.61 73.748 356.064 73.668C356.517 73.5612 356.904 73.5078 357.225 73.5078C357.759 73.5078 358.293 73.6546 358.826 73.9482C359.387 74.1351 359.961 74.2285 360.548 74.2285L364.152 73.5078C365.113 73.5078 365.953 73.5345 366.674 73.5879C367.421 73.6146 368.302 73.7347 369.317 73.9482C370.117 74.0817 370.518 74.5221 370.518 75.2695C370.518 75.9635 370.278 76.5107 369.797 76.9111C369.317 77.2848 368.716 77.6051 367.995 77.8721C367.275 78.1123 366.501 78.3258 365.673 78.5127C364.846 78.6729 364.071 78.873 363.351 79.1133C362.63 79.3268 362.029 79.6204 361.549 79.9941C361.069 80.3411 360.828 80.8216 360.828 81.4355C360.828 81.9961 360.922 82.5433 361.109 83.0771C361.295 83.5843 361.496 84.1048 361.709 84.6387C361.949 85.1725 362.163 85.7197 362.35 86.2803C362.537 86.8141 362.63 87.3613 362.63 87.9219L361.989 91.6855V99.6934C362.123 99.9069 362.19 100.187 362.19 100.534L362.35 104.818L363.231 106.34V108.902C363.231 108.956 363.231 109.089 363.231 109.303C363.257 109.49 363.284 109.703 363.311 109.943C363.337 110.184 363.364 110.41 363.391 110.624C363.418 110.838 363.431 110.984 363.431 111.064C363.484 111.492 363.551 112.119 363.631 112.946C363.711 113.747 363.805 114.601 363.911 115.509C364.045 116.416 364.192 117.284 364.352 118.111C364.539 118.939 364.765 119.566 365.032 119.993C365.326 120.5 365.726 120.887 366.234 121.154C366.741 121.395 367.288 121.595 367.875 121.755C368.489 121.915 369.103 122.049 369.717 122.155C370.331 122.262 370.878 122.422 371.359 122.636C371.866 122.823 372.279 123.09 372.6 123.437C372.92 123.784 373.08 124.277 373.08 124.918C373.08 125.452 372.947 125.866 372.68 126.159C372.413 126.453 372.079 126.68 371.679 126.84C371.279 127 370.851 127.093 370.398 127.12C369.944 127.174 369.543 127.2 369.196 127.2H367.114C366.554 127.2 365.953 127.187 365.313 127.16C364.699 127.133 364.112 127.093 363.551 127.04C362.99 126.987 362.497 126.933 362.07 126.88C361.642 126.8 361.335 126.706 361.149 126.6C361.069 126.546 360.802 126.52 360.348 126.52H359.587L355.263 127.2L351.539 126.8C351.432 126.8 351.272 126.853 351.059 126.96C350.872 127.067 350.752 127.147 350.698 127.2C350.218 127.2 349.738 127.16 349.257 127.08C348.777 127 348.336 126.867 347.936 126.68C347.562 126.493 347.242 126.253 346.975 125.959C346.735 125.639 346.614 125.252 346.614 124.798C346.614 124.211 347.002 123.81 347.776 123.597C348.096 123.57 348.403 123.543 348.696 123.517C348.99 123.49 349.31 123.477 349.657 123.477C350.645 123.477 351.579 123.396 352.46 123.236C353.368 123.049 354.115 122.569 354.702 121.795C354.729 121.661 354.769 121.541 354.822 121.435C354.849 121.354 354.876 121.274 354.903 121.194C354.929 121.114 354.943 121.061 354.943 121.034C354.943 120.981 354.956 120.914 354.983 120.834C355.036 120.754 355.089 120.66 355.143 120.554L355.423 119.593C355.583 118.979 355.69 118.365 355.743 117.751C355.797 117.137 355.823 116.523 355.823 115.909C355.823 115.135 355.783 114.388 355.703 113.667C355.65 112.92 355.557 112.146 355.423 111.345L355.343 110.984C355.29 110.824 355.263 110.624 355.263 110.384C355.263 110.117 355.263 109.837 355.263 109.543C355.263 109.143 355.263 108.715 355.263 108.262C355.263 107.781 355.236 107.341 355.183 106.94C355.156 106.513 355.103 106.14 355.023 105.819C354.943 105.472 354.836 105.219 354.702 105.059C354.756 104.925 354.782 104.832 354.782 104.778C354.782 104.698 354.782 104.605 354.782 104.498V103.857L353.902 97.291L354.102 92.4463C354.102 92.2061 354.088 91.8991 354.062 91.5254C354.035 91.125 354.008 90.738 353.982 90.3643C353.982 89.9639 353.968 89.6302 353.942 89.3633C353.915 89.0697 353.902 88.9229 353.902 88.9229C353.902 88.6826 353.888 88.3356 353.862 87.8818C353.862 87.4281 353.821 86.9743 353.741 86.5205C353.661 86.0667 353.528 85.6663 353.341 85.3193C353.154 84.9723 352.901 84.7988 352.58 84.7988C352.474 84.7988 352.367 84.8255 352.26 84.8789C352.18 84.9323 352.14 84.9857 352.14 85.0391L351.539 87.8018C351.166 87.9619 350.939 88.2288 350.859 88.6025C350.805 88.9762 350.779 89.3766 350.779 89.8037C350.779 90.0173 350.779 90.2308 350.779 90.4443C350.779 90.6312 350.752 90.8047 350.698 90.9648C350.271 91.7389 349.778 92.4463 349.217 93.0869C348.683 93.7008 348.203 94.3548 347.776 95.0488C347.642 95.1823 347.522 95.4225 347.415 95.7695C347.308 96.0898 347.202 96.4502 347.095 96.8506C346.988 97.2243 346.895 97.5846 346.815 97.9316C346.735 98.252 346.668 98.4922 346.614 98.6523C346.267 99.5866 345.867 100.521 345.413 101.455C344.96 102.389 344.466 103.31 343.932 104.218L343.652 104.818C343.598 104.872 343.558 105.085 343.531 105.459C343.505 105.806 343.465 106.033 343.411 106.14C343.331 106.193 343.211 106.286 343.051 106.42C342.918 106.553 342.771 106.7 342.611 106.86C342.45 107.021 342.304 107.181 342.17 107.341C342.037 107.474 341.93 107.568 341.85 107.621L341.289 110.504C341.209 110.878 341.076 111.225 340.889 111.545C340.702 111.865 340.502 112.186 340.288 112.506C340.101 112.799 339.915 113.106 339.728 113.427C339.541 113.72 339.394 114.041 339.287 114.388C339.287 114.441 339.274 114.575 339.247 114.788C339.221 115.002 339.181 115.242 339.127 115.509C339.1 115.776 339.074 116.029 339.047 116.27C339.02 116.51 339.007 116.67 339.007 116.75C339.007 116.83 338.954 117.097 338.847 117.551C338.767 117.978 338.66 118.445 338.527 118.952C338.393 119.459 338.26 119.926 338.126 120.354C338.019 120.754 337.939 120.981 337.886 121.034L336.925 122.155C336.872 122.235 336.845 122.489 336.845 122.916C336.845 123.13 336.832 123.383 336.805 123.677C336.778 123.944 336.711 124.197 336.605 124.438C336.498 124.678 336.351 124.878 336.164 125.038C336.004 125.198 335.791 125.278 335.524 125.278C335.283 125.278 335.03 125.185 334.763 124.998C334.523 124.811 334.269 124.571 334.002 124.277C333.762 123.984 333.522 123.677 333.281 123.356C333.068 123.036 332.868 122.729 332.681 122.436C332.681 122.382 332.627 122.289 332.521 122.155C332.414 121.995 332.361 121.875 332.361 121.795C331.853 120.941 331.52 120.033 331.36 119.072C331.199 118.111 330.973 117.124 330.679 116.109C330.626 115.869 330.452 115.482 330.158 114.948C329.891 114.414 329.585 113.854 329.238 113.267C328.89 112.653 328.557 112.065 328.237 111.505C327.916 110.944 327.676 110.504 327.516 110.184C326.902 108.982 326.275 107.781 325.634 106.58C324.993 105.379 324.366 104.178 323.752 102.977L322.871 100.174C322.097 98.4388 321.283 96.8239 320.429 95.3291C319.575 93.8076 318.721 92.2461 317.866 90.6445C317.813 90.5378 317.72 90.391 317.586 90.2041C317.453 90.0173 317.359 89.9105 317.306 89.8838L316.425 88.9229C316.345 88.7627 316.292 88.5892 316.265 88.4023C316.265 88.2155 316.252 88.042 316.225 87.8818C316.198 87.7217 316.131 87.5882 316.025 87.4814C315.918 87.3747 315.731 87.3213 315.464 87.3213C315.331 87.3213 315.237 87.3346 315.184 87.3613C315.157 87.388 315.104 87.4681 315.024 87.6016L314.543 92.2461V94.168C314.543 95.0755 314.543 95.9697 314.543 96.8506C314.543 97.7048 314.57 98.5856 314.623 99.4932C314.703 101.228 314.743 103.003 314.743 104.818C314.77 104.898 314.81 105.019 314.863 105.179C314.917 105.312 314.97 105.499 315.024 105.739C315.077 105.953 315.144 106.233 315.224 106.58L314.904 107.381C314.904 107.835 314.837 108.235 314.703 108.582C314.597 108.902 314.543 109.41 314.543 110.104V110.784L315.304 112.266C315.357 112.372 315.384 112.493 315.384 112.626C315.384 112.759 315.384 112.906 315.384 113.066V114.388C315.384 115.082 315.411 115.762 315.464 116.43C315.517 117.097 315.718 117.644 316.065 118.071L319.188 121.595C319.188 122.129 319.321 122.529 319.588 122.796C319.855 123.063 320.189 123.276 320.589 123.437C320.989 123.597 321.417 123.717 321.87 123.797C322.351 123.877 322.791 123.997 323.192 124.157C323.592 124.291 323.926 124.491 324.193 124.758C324.46 125.025 324.593 125.398 324.593 125.879C324.593 125.959 324.58 126.079 324.553 126.239C324.553 126.373 324.526 126.52 324.473 126.68C324.446 126.813 324.393 126.933 324.313 127.04C324.233 127.147 324.139 127.2 324.032 127.2H320.229L319.188 126.8H318.227C317.64 126.8 317.079 126.773 316.545 126.72C316.038 126.64 315.517 126.56 314.984 126.479C314.476 126.399 313.943 126.333 313.382 126.279C312.848 126.199 312.261 126.159 311.62 126.159C311.353 126.159 311.086 126.279 310.82 126.52C310.553 126.733 310.272 126.893 309.979 127C309.285 127.053 308.577 127.147 307.857 127.28C307.136 127.414 306.415 127.48 305.695 127.48C305.481 127.48 305.227 127.507 304.934 127.561C304.64 127.641 304.293 127.681 303.893 127.681C303.706 127.681 303.492 127.667 303.252 127.641C303.039 127.614 302.825 127.521 302.612 127.36C301.944 127.093 301.611 126.56 301.611 125.759Z" />
<path d="M149.996 38.9831C150.627 40.023 149.08 41.0052 148.256 40.1105C135.353 26.1028 117.045 17.3571 96.7378 17.3571C57.6644 17.3571 25.9893 49.7366 25.9893 89.6786C25.9893 124.077 49.4819 152.866 80.9606 160.195C81.9801 160.432 81.9022 162 80.8555 162C36.2002 162 0 125.735 0 81C0 36.2649 36.2002 0 80.8555 0C110.154 0 135.813 15.6111 149.996 38.9831Z" />
</svg>
