<svg width="15" height="18" viewBox="0 0 15 18" fill="none" xmlns="http://www.w3.org/2000/svg">
<path fill-rule="evenodd" clip-rule="evenodd" d="M6.36594 17.7071C6.75646 18.0976 7.38963 18.0976 7.78015 17.7071L13.8512 11.636C14.4812 11.0061 14.035 9.92893 13.1441 9.92893L12.073 9.92893C11.5207 9.92893 11.073 9.48122 11.073 8.92893L11.073 1.92893C11.073 1.37665 10.6253 0.928932 10.073 0.928932L4.07298 0.928931C3.52069 0.928931 3.07298 1.37665 3.07298 1.92893L3.07298 8.92893C3.07298 9.48122 2.62526 9.92893 2.07298 9.92893L1.00198 9.92893C0.111074 9.92893 -0.335093 11.0061 0.294872 11.636L6.36594 17.7071Z"/>
</svg>
