<svg width="35" height="35" viewBox="0 0 35 35" fill="none" xmlns="http://www.w3.org/2000/svg">
<path fill-rule="evenodd" clip-rule="evenodd" d="M14 2C14 0.89543 14.8954 0 16 0H19C20.1046 0 21 0.895431 21 2C21 4.60173 24.1456 5.90466 25.9853 4.06496C26.7664 3.28392 28.0327 3.28392 28.8137 4.06496L30.9351 6.18629C31.7161 6.96733 31.7161 8.23366 30.9351 9.01471C29.0954 10.8544 30.3983 14 33 14C34.1046 14 35 14.8954 35 16V19C35 20.1046 34.1046 21 33 21C30.3983 21 29.0953 24.1456 30.935 25.9853C31.716 26.7663 31.716 28.0327 30.935 28.8137L28.8137 30.935C28.0326 31.7161 26.7663 31.7161 25.9852 30.935C24.1456 29.0953 21 30.3983 21 33C21 34.1046 20.1046 35 19 35H16C14.8954 35 14 34.1046 14 33C14 30.3983 10.8544 29.0953 9.01475 30.935C8.2337 31.7161 6.96737 31.7161 6.18632 30.935L4.065 28.8137C3.28395 28.0327 3.28395 26.7663 4.065 25.9853C5.90469 24.1456 4.60172 21 2 21C0.89543 21 0 20.1046 0 19V16C0 14.8954 0.895431 14 2 14C4.60171 14 5.90462 10.8544 4.06494 9.01471C3.28389 8.23366 3.28389 6.96733 4.06494 6.18628L6.18626 4.06496C6.96731 3.28391 8.23364 3.28391 9.01469 4.06496C10.8544 5.90466 14 4.60173 14 2ZM17.5 23.8636C21.0145 23.8636 23.8636 21.0145 23.8636 17.5C23.8636 13.9855 21.0145 11.1364 17.5 11.1364C13.9855 11.1364 11.1364 13.9855 11.1364 17.5C11.1364 21.0145 13.9855 23.8636 17.5 23.8636Z" />
</svg>
