<svg width="82" height="129" viewBox="0 0 82 129" fill="none" xmlns="http://www.w3.org/2000/svg">
<mask id="path-1-inside-1_22_5" fill="white">
<path fill-rule="evenodd" clip-rule="evenodd" d="M46.8727 100.658C47.3735 100.658 47.8561 100.846 48.2251 101.185L77.8522 128.377C79.1347 129.554 81.2046 128.644 81.2046 126.903V2.00395C81.2046 0.263153 79.1347 -0.646614 77.8522 0.530482L46.6897 29.1317C46.3208 29.4703 45.8382 29.6582 45.3374 29.6582H2C0.89543 29.6582 0 30.5536 0 31.6582V98.6582C0 99.7628 0.89543 100.658 2 100.658H46.8727Z"/>
</mask>
<path d="M46.6897 29.1317L43.985 26.1847L46.6897 29.1317ZM77.8522 0.530482L75.1475 -2.41646L77.8522 0.530482ZM48.2251 101.185L50.9298 98.2378L48.2251 101.185ZM80.557 125.43L50.9298 98.2378L45.5203 104.132L75.1475 131.324L80.557 125.43ZM77.2046 2.00395V126.903H85.2046V2.00395H77.2046ZM49.3945 32.0786L80.557 3.47742L75.1475 -2.41646L43.985 26.1847L49.3945 32.0786ZM2 33.6582H45.3374V25.6582H2V33.6582ZM4 98.6582V31.6582H-4V98.6582H4ZM46.8727 96.6582H2V104.658H46.8727V96.6582ZM-4 98.6582C-4 101.972 -1.31371 104.658 2 104.658V96.6582C3.10457 96.6582 4 97.5536 4 98.6582H-4ZM2 25.6582C-1.31371 25.6582 -4 28.3445 -4 31.6582H4C4 32.7628 3.10457 33.6582 2 33.6582V25.6582ZM43.985 26.1847C44.354 25.8461 44.8366 25.6582 45.3374 25.6582V33.6582C46.8398 33.6582 48.2876 33.0945 49.3945 32.0786L43.985 26.1847ZM85.2046 2.00395C85.2046 -3.21845 78.995 -5.94775 75.1475 -2.41646L80.557 3.47742C79.2744 4.65452 77.2046 3.74475 77.2046 2.00395H85.2046ZM50.9298 98.2378C49.8229 97.2219 48.3751 96.6582 46.8727 96.6582V104.658C46.3719 104.658 45.8893 104.47 45.5203 104.132L50.9298 98.2378ZM75.1475 131.324C78.995 134.855 85.2046 132.126 85.2046 126.903H77.2046C77.2046 125.163 79.2745 124.253 80.557 125.43L75.1475 131.324Z" mask="url(#path-1-inside-1_22_5)"/>
</svg>
